HIERARCHY
ROOT Hips
{
	OFFSET	0.000000	0.000000	0.000000
	CHANNELS 6 Xposition Yposition Zposition Zrotation Xrotation Yrotation
	JOINT LeftHip
	{
		OFFSET	4.740440	-3.195970	-0.322709
		CHANNELS 3 Zrotation Xrotation Yrotation
		JOINT LeftKnee
		{
			OFFSET	-1.605680	-15.592300	1.005510
			CHANNELS 3 Zrotation Xrotation Yrotation
			JOINT LeftAnkle
			{
				OFFSET	-0.632401	-16.421000	-1.413730
				CHANNELS 3 Zrotation Xrotation Yrotation
				End Site
				{
					OFFSET	0.008423	-2.933000	-1.776750
				}
			}
		}
	}
	JOINT RightHip
	{
		OFFSET	-4.740440	-3.195970	-0.322709
		CHANNELS 3 Zrotation Xrotation Yrotation
		JOINT RightKnee
		{
			OFFSET	1.605680	-15.592300	1.005510
			CHANNELS 3 Zrotation Xrotation Yrotation
			JOINT RightAnkle
			{
				OFFSET	0.632401	-16.421000	-1.413730
				CHANNELS 3 Zrotation Xrotation Yrotation
				End Site
				{
					OFFSET	-0.008423	-2.933000	-1.776750
				}
			}
		}
	}
	JOINT Chest
	{
		OFFSET	0.000000	3.468200	0.078401
		CHANNELS 3 Zrotation Xrotation Yrotation
		JOINT LeftCollar
		{
			OFFSET	3.857650	15.070700	-0.011583
			CHANNELS 3 Zrotation Xrotation Yrotation
			JOINT LeftShoulder
			{
				OFFSET	3.979720	-1.940530	-0.165223
				CHANNELS 3 Zrotation Xrotation Yrotation
				JOINT LeftElbow
				{
					OFFSET	0.615844	-10.986600	-0.673886
					CHANNELS 3 Zrotation Xrotation Yrotation
					JOINT LeftWrist
					{
						OFFSET	0.826843	-10.854500	1.034220
						CHANNELS 3 Zrotation Xrotation Yrotation
						End Site
						{
							OFFSET	-1.679080	-8.456540	0.936217
						}
					}
				}
			}
		}
		JOINT RightCollar
		{
			OFFSET	-3.857650	15.070700	-0.011583
			CHANNELS 3 Zrotation Xrotation Yrotation
			JOINT RightShoulder
			{
				OFFSET	-3.979720	-1.940530	-0.165223
				CHANNELS 3 Zrotation Xrotation Yrotation
				JOINT RightElbow
				{
					OFFSET	-0.615845	-10.986600	-0.673886
					CHANNELS 3 Zrotation Xrotation Yrotation
					JOINT RightWrist
					{
						OFFSET	-0.826843	-10.854500	1.034220
						CHANNELS 3 Zrotation Xrotation Yrotation
						End Site
						{
							OFFSET	1.679080	-8.456540	0.936217
						}
					}
				}
			}
		}
		JOINT Neck
		{
			OFFSET	0.000000	15.101400	0.055730
			CHANNELS 3 Zrotation Xrotation Yrotation
			JOINT Head
			{
				OFFSET	0.000000	4.185120	1.488260
				CHANNELS 3 Zrotation Xrotation Yrotation
				End Site
				{
					OFFSET	0.000000	7.773420	-0.106016
				}
			}
		}
	}
}
MOTION
Frames:     16
Frame Time: 0.016667
1.053026	37.059250	-1.145391	2.861534	-12.819525	-16.313354	-4.249063	4.690683	3.708627	-7.811680	13.499619	1.841188	11.176428	-6.466060	14.606018	-18.327171	-6.681196	-2.966515	-1.424106	25.951866	0.969692	11.251503	-6.500350	15.241659	-5.049106	14.119721	1.376850	-5.025234	1.389265	6.453145	4.764453	-0.386130	3.636500	-1.392092	-13.753127	-8.155091	11.144814	2.596923	-6.210050	-6.038950	-2.416761	2.590379	-2.028716	-1.423630	2.343918	-2.594955	-5.337065	16.652321	-14.238636	-12.095494	4.503244	-1.465500	12.981693	-0.530073	8.340208	2.725433	-16.152271	
1.053026	37.059250	-1.145391	2.861534	-12.819525	-16.313354	-4.249063	4.690683	3.708627	-7.811680	13.499619	1.841188	11.176428	-6.466060	14.606018	-18.327171	-6.681196	-2.966515	-1.424106	25.951866	0.969692	11.251503	-6.500350	15.241659	-5.049106	14.119721	1.376850	-5.027927	1.390899	6.455779	4.766927	-0.388264	3.634099	-1.392092	-13.753127	-8.155091	11.144814	2.596923	-6.210050	-6.038950	-2.416761	2.590379	-2.028716	-1.423630	2.343918	-2.594955	-5.337065	16.652321	-14.238636	-12.095494	4.503244	-1.465018	12.982991	-0.520129	8.340215	2.722687	-16.162037	
1.053026	37.059250	-1.145391	2.861534	-12.819525	-16.313354	-4.249063	4.690683	3.708627	-7.811680	13.499619	1.841188	11.176428	-6.466060	14.606018	-18.327171	-6.681196	-2.966515	-1.424106	25.951866	0.969692	11.251503	-6.500350	15.241659	-5.049106	14.119721	1.376850	-5.031290	1.392970	6.459108	4.770015	-0.390961	3.631064	-1.392092	-13.753127	-8.155091	11.144814	2.596923	-6.210050	-6.038950	-2.416761	2.590379	-2.028716	-1.423630	2.343918	-2.594955	-5.337065	16.652321	-14.238636	-12.095494	4.503244	-1.464735	12.983776	-0.514169	8.340223	2.721034	-16.167891	
1.053026	37.059250	-1.145391	2.861534	-12.819525	-16.313354	-4.249063	4.690683	3.708627	-7.811680	13.499619	1.841188	11.176428	-6.466060	14.606018	-18.327171	-6.681196	-2.966515	-1.424106	25.951866	0.969692	11.251503	-6.500350	15.241659	-5.049106	14.119721	1.376850	-5.041681	1.399377	6.469407	4.779549	-0.399307	3.621682	-1.392092	-13.753127	-8.155091	11.144814	2.596923	-6.210050	-6.038950	-2.416761	2.590379	-2.028716	-1.423630	2.343918	-2.594955	-5.337065	16.652321	-14.238636	-12.095494	4.503244	-1.463791	12.986347	-0.494488	8.340242	2.715597	-16.187220	
1.053026	37.059250	-1.145391	2.861534	-12.819525	-16.313354	-4.249063	4.690683	3.708627	-7.809918	13.495327	1.841698	11.174656	-6.461975	14.604258	-18.327171	-6.681196	-2.966515	-1.424106	25.951866	0.969692	11.251503	-6.500350	15.241659	-5.049106	14.119721	1.376850	-5.045067	1.401465	6.472770	4.782659	-0.402028	3.618618	-1.392092	-13.753127	-8.155091	11.144814	2.596923	-6.210050	-6.038950	-2.416761	2.590379	-2.028716	-1.423630	2.343918	-2.594955	-5.337065	16.652321	-14.238636	-12.095494	4.503244	-1.463449	12.987288	-0.487333	8.340249	2.713616	-16.194248	
1.052937	37.059589	-1.146366	2.868106	-12.821379	-16.302010	-4.254926	4.691393	3.698735	-7.803731	13.480161	1.843558	11.168429	-6.447554	14.598004	-18.334944	-6.678109	-2.975969	-1.424106	25.951866	0.969692	11.251503	-6.500350	15.241659	-5.053300	14.120571	1.366695	-5.055368	1.407796	6.482985	4.792113	-0.410283	3.609315	-1.392092	-13.753127	-8.155091	11.144814	2.596923	-6.210050	-6.036517	-2.413269	2.593833	-2.031386	-1.426889	2.340452	-2.594955	-5.337065	16.652321	-14.238636	-12.095494	4.503244	-1.462330	12.990344	-0.463965	8.340272	2.707155	-16.217197	
1.052887	37.059784	-1.146919	2.871787	-12.822446	-16.295593	-4.258211	4.691823	3.693133	-7.803458	13.479469	1.843658	11.168153	-6.446899	14.597710	-18.339308	-6.676333	-2.981317	-1.424106	25.951866	0.969692	11.251503	-6.500350	15.241659	-5.055641	14.121079	1.360944	-5.058614	1.409782	6.486203	4.795091	-0.412878	3.606380	-1.392092	-13.753127	-8.155091	11.144814	2.596923	-6.210050	-6.033669	-2.409171	2.597869	-2.034515	-1.430714	2.336393	-2.594955	-5.337065	16.652321	-14.238636	-12.095494	4.503244	-1.461916	12.991473	-0.455308	8.337922	2.708871	-16.227451	
1.052733	37.060375	-1.148639	2.883269	-12.825761	-16.275572	-4.268457	4.693167	3.675653	-7.797222	13.464196	1.845509	11.161878	-6.432373	14.591434	-18.352924	-6.670791	-2.998001	-1.424106	25.951866	0.969692	11.251503	-6.500350	15.241659	-5.062939	14.122663	1.343000	-5.062163	1.411963	6.489741	4.798346	-0.415725	3.603158	-1.392092	-13.753127	-8.155091	11.144814	2.596923	-6.210050	-6.033272	-2.408603	2.598436	-2.034866	-1.431356	2.341167	-2.595533	-5.336708	16.646969	-14.238636	-12.095494	4.503244	-1.460628	12.994998	-0.428410	8.329848	2.716122	-16.259886	
1.052677	37.060585	-1.149249	2.887331	-12.826930	-16.268486	-4.272080	4.693638	3.669468	-7.795046	13.458866	1.846166	11.159688	-6.427303	14.589233	-18.357738	-6.668835	-3.003905	-1.424106	25.951866	0.969692	11.251503	-6.500350	15.241659	-5.065518	14.123220	1.336652	-5.062163	1.411963	6.489741	4.798346	-0.415725	3.603158	-1.392092	-13.753127	-8.155091	11.144814	2.596923	-6.210050	-6.033272	-2.408603	2.598436	-2.034866	-1.431356	2.341167	-2.595533	-5.336708	16.646969	-14.238636	-12.095494	4.503244	-1.460188	12.996209	-0.419185	8.333646	2.717737	-16.266726	
1.052509	37.061222	-1.151109	2.899724	-12.830514	-16.246832	-4.281772	4.697691	3.659451	-7.790148	13.447341	1.837894	11.155458	-6.417527	14.585007	-18.372437	-6.662820	-3.021950	-1.424106	25.951866	0.969692	11.251503	-6.500350	15.241659	-5.073387	14.124951	1.317239	-5.062163	1.411963	6.489741	4.798346	-0.415725	3.603158	-1.392092	-13.753127	-8.155091	11.144814	2.596923	-6.210050	-6.033272	-2.408603	2.598436	-2.034764	-1.431448	2.345775	-2.596061	-5.336402	16.642351	-14.238636	-12.095494	4.503244	-1.458834	12.999926	-0.390779	8.349380	2.722060	-16.285347	
1.052452	37.061436	-1.151736	2.903907	-12.831722	-16.239519	-4.284756	4.699601	3.657936	-7.787614	13.441360	1.833346	11.153289	-6.412491	14.582812	-18.377398	-6.660788	-3.028043	-1.424106	25.951866	0.969692	11.251503	-6.500350	15.241659	-5.076040	14.125535	1.310684	-5.062163	1.411963	6.489741	4.798346	-0.415725	3.603158	-1.392092	-13.753127	-8.155091	11.144814	2.596923	-6.210050	-6.033272	-2.408603	2.598436	-2.034674	-1.431571	2.351307	-2.596660	-5.336026	16.636810	-14.238636	-12.095494	4.503244	-1.458367	13.001204	-0.381013	8.354812	2.723533	-16.291735	
1.052288	37.062077	-1.153611	2.916384	-12.835326	-16.217699	-4.293523	4.705593	3.654408	-7.779859	13.423204	1.818655	11.146722	-6.397291	14.576264	-18.392193	-6.654722	-3.046225	-1.424106	25.951866	0.969692	11.251503	-6.500350	15.241659	-5.083952	14.127282	1.291121	-5.062163	1.411963	6.489741	4.799486	-0.414558	3.614519	-1.396089	-13.753943	-8.166804	11.144814	2.596923	-6.210050	-6.033272	-2.408603	2.598436	-2.034427	-1.431945	2.368065	-2.598452	-5.334882	16.620020	-14.238636	-12.095494	4.503244	-1.456912	13.005211	-0.350417	8.371766	2.728032	-16.311823	
1.052234	37.062283	-1.154203	2.920302	-12.836467	-16.210825	-4.296252	4.707548	3.653498	-7.777194	13.416938	1.813906	11.144445	-6.392015	14.573959	-18.396843	-6.652802	-3.051948	-1.424106	25.951866	0.969692	11.251503	-6.500350	15.241659	-5.086437	14.127843	1.284962	-5.062163	1.411963	6.489741	4.800121	-0.413915	3.620884	-1.398323	-13.754392	-8.173366	11.144814	2.596923	-6.210050	-6.033272	-2.408603	2.598436	-2.034265	-1.432196	2.379100	-2.599633	-5.334125	16.608965	-14.238636	-12.095494	4.503244	-1.455880	13.008036	-0.328817	8.377421	2.726344	-16.329716	
1.052078	37.062866	-1.155909	2.931666	-12.839734	-16.190966	-4.304127	4.713212	3.651011	-7.769718	13.399383	1.799894	11.138099	-6.377308	14.567614	-18.410311	-6.647284	-3.068495	-1.424106	25.951866	0.969692	11.251503	-6.500350	15.241659	-5.093642	14.129427	1.267159	-5.062163	1.411963	6.489741	4.802078	-0.411932	3.640497	-1.405208	-13.755767	-8.193584	11.144814	2.596923	-6.210050	-6.033272	-2.408603	2.598436	-2.034291	-1.432224	2.379830	-2.599674	-5.334066	16.608232	-14.238636	-12.095494	4.503244	-1.454279	13.012461	-0.295058	8.393867	2.729479	-16.353210	
1.052033	37.063061	-1.156474	2.935404	-12.840817	-16.184422	-4.307375	4.713856	3.645961	-7.767592	13.394219	1.799806	11.136026	-6.372493	14.565533	-18.414743	-6.645462	-3.073944	-1.424106	25.951866	0.969692	11.251503	-6.500350	15.241659	-5.096014	14.129955	1.261295	-5.062163	1.411963	6.489741	4.802767	-0.411233	3.647444	-1.407644	-13.756248	-8.200746	11.144814	2.596923	-6.210050	-6.033272	-2.408603	2.598436	-2.034291	-1.432224	2.379830	-2.599674	-5.334066	16.608232	-14.238636	-12.095494	4.503244	-1.453730	13.013992	-0.283395	8.399395	2.730428	-16.361420	
1.051876	37.063644	-1.158181	2.946772	-12.844084	-16.164560	-4.317502	4.715209	3.628618	-7.767310	13.393525	1.799908	11.135740	-6.371833	14.565233	-18.428213	-6.639936	-3.090489	-1.424106	25.951866	0.969692	11.251503	-6.500350	15.241659	-5.103220	14.131545	1.243491	-5.056639	1.402948	6.501131	4.800278	-0.400583	3.655923	-1.414929	-13.757669	-8.222153	11.146151	2.602045	-6.209903	-6.033272	-2.408603	2.598436	-2.034023	-1.432571	2.395532	-2.601389	-5.332995	16.592505	-14.238636	-12.095494	4.503244	-1.452011	13.018739	-0.247168	8.416394	2.733293	-16.386992	
